<?xml version="1.0" encoding="UTF-8"?>
<svg id="Layer_1" data-name="Layer 1" xmlns="http://www.w3.org/2000/svg" viewBox="0 0 374.17 374.17">
  <defs>
    <style>
      .cls-1 {
        fill: none;
        stroke-width: 3.73px;
      }

      .cls-1, .cls-2 {
        stroke: #fff;
        stroke-miterlimit: 10;
      }

      .cls-3 {
        fill: #231f20;
      }

      .cls-2 {
        stroke-width: 2.8px;
      }

      .cls-2, .cls-4, .cls-5 {
        fill: #fff;
      }

      .cls-4 {
        font-family: Agrandir-TextBold, Agrandir;
        font-size: 11px;
        font-weight: 700;
      }

      .cls-5 {
        font-family: Anton-Regular, Anton;
        font-size: 36px;
      }

      .cls-6 {
        letter-spacing: -.08em;
      }

      .cls-7 {
        letter-spacing: -.03em;
      }
    </style>
  </defs>
  <rect class="cls-3" x="-.41" y=".09" width="376.41" height="375"/>
  <g>
    <g>
      <path class="cls-1" d="M135.02,164.08c16.88-12.06,43.51-27.75,63.49-13.87-7.74-18.33-29.1-27.64-48.04-22.81,18.48-15.94,55.18-2.47,76.53,3.64,3.49,1,7.92,1.93,8.26,4.21.49,3.28-3.8,6.6-8.4,11.16-1.39,1.38-20.58,20.72-16.53,33.16.77,2.35,2.93,6.2,10.33,9.39"/>
      <path class="cls-1" d="M139.9,160.81c6.55,10.1,20.74,15.37,31.49,20.59.26.13.51.25.77.38.21.1.36.18.38.19.35.17,4.52,2.21,14.98,7.33"/>
      <path class="cls-2" d="M174.08,156.71l13.46-.38c-6.24,10.24-6.9,10.92-13.46.38Z"/>
    </g>
    <text class="cls-5" transform="translate(161.79 218.25)"><tspan x="0" y="0">UNIX</tspan></text>
    <text class="cls-4" transform="translate(147.69 232.8)"><tspan x="0" y="0">CRE</tspan><tspan class="cls-6" x="21.92" y="0">A</tspan><tspan x="28.57" y="0">TIVE </tspan><tspan class="cls-7" x="54.17" y="0">S</tspan><tspan x="60.68" y="0">TUDIO</tspan></text>
  </g>
</svg>